<svg xmlns="http://www.w3.org/2000/svg" viewBox="0 0 512 512">
  <defs>
    <linearGradient id="duo" x1="0%" y1="0%" x2="100%" y2="0%">
      <stop offset="0%" stop-color="#e16b34"/>
      <stop offset="100%" stop-color="#67b43a"/>
    </linearGradient>
    </defs>
  
  <!-- C-shaped ring + leaf -->
  <g transform="translate(256,256)">
    <!-- C ring -->
    <path d="M0,-170 A170,170 0 1,0 0,170" fill="none" stroke="url(#duo)" stroke-width="44" stroke-linecap="round"/>
    <!-- gap to form C (mask by white arc) -->
    <path d="M0,-170 A170,170 0 0,1 0,-110" fill="none" stroke="#fff" stroke-width="54" stroke-linecap="round"/>
    <!-- leaf inside -->
    <g transform="translate(40,0) rotate(-20)">
      <path d="M-40,0 C-15,-30 30,-35 70,-18 C95,-7 105,18 88,40 C68,64 28,66 5,50 C-15,36 -28,16 -40,0 Z"
            fill="#67b43a"/>
      <path d="M-10,20 C10,5 35,-5 65,6" fill="none" stroke="#fff" stroke-width="3" stroke-linecap="round" opacity=".9"/>
    </g>
  </g>
</svg>